<svg xmlns="http://www.w3.org/2000/svg" viewBox="0 0 512 512">
  <defs>
    <linearGradient id="bgGrad" x1="0%" y1="0%" x2="100%" y2="100%">
      <stop offset="0%" style="stop-color:#5B21B6"/>
      <stop offset="100%" style="stop-color:#2E1065"/>
    </linearGradient>
    
    <linearGradient id="frameGrad" x1="0%" y1="0%" x2="100%" y2="100%">
      <stop offset="0%" style="stop-color:#FDE68A"/>
      <stop offset="100%" style="stop-color:#B45309"/>
    </linearGradient>
    
    <radialGradient id="voidGrad" cx="50%" cy="30%" r="70%">
      <stop offset="0%" style="stop-color:#3B0764"/>
      <stop offset="100%" style="stop-color:#0f0520"/>
    </radialGradient>
  </defs>
  
  <!-- Background -->
  <rect x="16" y="16" width="480" height="480" rx="96" ry="96" fill="url(#bgGrad)"/>
  
  <!-- Arch frame - uniform width, pinch at 2/3, point at top -->
  <path d="M120 445
           L120 180
           Q120 140 170 110
           Q220 80 256 55
           Q292 80 342 110
           Q392 140 392 180
           L392 445
           Z"
        fill="url(#frameGrad)"/>
  
  <!-- Inner void - same shape -->
  <path d="M165 445
           L165 190
           Q165 155 205 130
           Q240 105 256 85
           Q272 105 307 130
           Q347 155 347 190
           L347 445
           Z"
        fill="url(#voidGrad)"/>
  
  <!-- Stars -->
  <circle cx="210" cy="220" r="2.5" fill="#E0E7FF"/>
  <circle cx="302" cy="200" r="2" fill="#C7D2FE"/>
  <circle cx="256" cy="280" r="4" fill="#FFF"/>
  <circle cx="225" cy="360" r="2" fill="#E0E7FF"/>
  <circle cx="290" cy="320" r="2.5" fill="#C7D2FE"/>
  <circle cx="200" cy="410" r="2" fill="#A5B4FC"/>
  <circle cx="310" cy="390" r="1.5" fill="#E0E7FF"/>
  <circle cx="256" cy="150" r="2" fill="#FFF" opacity="0.8"/>
</svg>
